# xmcd
#
# Track frame offsets: 
#        187
#        3297
#        28132
#        50707
#        83365
#        102820
#        129910
#        145842
#        168312
#        187907
#
# Disc length: 2611 seconds
#
# Revision: 11
# Processed by: cddbd v1.5.2PL0 Copyright (c) Steve Scherf et al.
# Submitted via: ExactAudioCopy v0.99pb4
#
DISCID=710a310a
DTITLE=Blind Guardian - Follow The Blind
DYEAR=1989
DGENRE=Metal
TTITLE0=Inquisition
TTITLE1=Banish From Sanctuary
TTITLE2=Damned For All Time
TTITLE3=Follow The Blind
TTITLE4=Hall Of The King
TTITLE5=Fast To Madness
TTITLE6=Beyond The Ice
TTITLE7=Valhalla
TTITLE8=Don't Break The Circle
TTITLE9=Barbara Ann
EXTD=YEAR: 1989
EXTT0=
EXTT1=
EXTT2=
EXTT3=
EXTT4=
EXTT5=
EXTT6=
EXTT7=
EXTT8=
EXTT9=
PLAYORDER=
